<?xml version="1.0" encoding="UTF-8" standalone="no"?>
<!-- Created with Inkscape (http://www.inkscape.org/) -->

<svg
   width="75.279182mm"
   height="39.344048mm"
   viewBox="0 0 75.286711 39.347982"
   version="1.1"
   id="svg5"
   inkscape:version="1.3 (0e150ed, 2023-07-21)"
   sodipodi:docname="metabox.svg.2023_09_09_14_23_39.0.svg"
   inkscape:export-filename="metabox.png"
   inkscape:export-xdpi="337.39398"
   inkscape:export-ydpi="337.39398"
   xmlns:inkscape="http://www.inkscape.org/namespaces/inkscape"
   xmlns:sodipodi="http://sodipodi.sourceforge.net/DTD/sodipodi-0.dtd"
   xmlns="http://www.w3.org/2000/svg"
   xmlns:svg="http://www.w3.org/2000/svg">
  <sodipodi:namedview
     id="namedview7"
     pagecolor="#eac9c9"
     bordercolor="#eeeeee"
     borderopacity="1"
     inkscape:showpageshadow="0"
     inkscape:pageopacity="0"
     inkscape:pagecheckerboard="true"
     inkscape:deskcolor="#505050"
     inkscape:document-units="mm"
     showgrid="false"
     inkscape:zoom="3.4024505"
     inkscape:cx="140.63393"
     inkscape:cy="55.254294"
     inkscape:window-width="1792"
     inkscape:window-height="917"
     inkscape:window-x="0"
     inkscape:window-y="25"
     inkscape:window-maximized="0"
     inkscape:current-layer="layer1"
     inkscape:export-bgcolor="#ffffff00" />
  <defs
     id="defs2">
    <inkscape:path-effect
       effect="perspective-envelope"
       up_left_point="0.0037948,3.08687"
       up_right_point="43.790982,10.09089"
       down_left_point="0.0037948,23.453022"
       down_right_point="43.790975,39.331234"
       id="path-effect1"
       is_visible="true"
       lpeversion="1"
       deform_type="perspective"
       horizontal_mirror="false"
       vertical_mirror="false"
       overflow_perspective="false" />
    <inkscape:path-effect
       effect="perspective-envelope"
       up_left_point="86.734879,156.68004"
       up_right_point="111.72042,151.9135"
       down_left_point="86.729811,180.26871"
       down_right_point="111.72042,169.24242"
       id="path-effect6"
       is_visible="true"
       lpeversion="1"
       deform_type="perspective"
       horizontal_mirror="false"
       vertical_mirror="false"
       overflow_perspective="false" />
    <inkscape:path-effect
       effect="perspective-envelope"
       up_left_point="-4.2063055,26.785816"
       up_right_point="39.580882,33.789836"
       down_left_point="-4.2101003,46.741411"
       down_right_point="39.580879,63.046923"
       id="path-effect5"
       is_visible="true"
       lpeversion="1"
       deform_type="perspective"
       horizontal_mirror="false"
       vertical_mirror="false"
       overflow_perspective="false" />
    <inkscape:path-effect
       effect="powermask"
       id="path-effect182"
       is_visible="true"
       lpeversion="1"
       uri="#mask-powermask-path-effect182"
       invert="false"
       hide_mask="false"
       background="true"
       background_color="#ffffffff" />
    <inkscape:path-effect
       effect="perspective-envelope"
       up_left_point="32.441315,0"
       up_right_point="75.213782,4.0996714"
       down_left_point="9.9999988e-07,3.08687"
       down_right_point="43.787188,10.09089"
       id="path-effect4"
       is_visible="true"
       lpeversion="1"
       deform_type="perspective"
       horizontal_mirror="false"
       vertical_mirror="false"
       overflow_perspective="false" />
    <inkscape:path-effect
       effect="perspective-envelope"
       up_left_point="43.787188,10.09089"
       up_right_point="75.282908,4.0824"
       down_left_point="43.787186,39.347977"
       down_right_point="75.282904,25.451691"
       id="path-effect3"
       is_visible="true"
       lpeversion="1"
       deform_type="perspective"
       horizontal_mirror="false"
       vertical_mirror="false"
       overflow_perspective="false" />
    <inkscape:path-effect
       effect="perspective-envelope"
       up_left_point="9.9999988e-07,3.08687"
       up_right_point="43.787188,10.09089"
       down_left_point="0,23.048004"
       down_right_point="43.787188,39.34798"
       id="path-effect2"
       is_visible="true"
       lpeversion="1"
       deform_type="perspective"
       horizontal_mirror="false"
       vertical_mirror="false"
       overflow_perspective="false" />
    <linearGradient
       id="swatch1"
       inkscape:swatch="solid">
      <stop
         style="stop-color:#010101;stop-opacity:1;"
         offset="0"
         id="stop1" />
    </linearGradient>
    <mask
       maskUnits="userSpaceOnUse"
       id="mask-powermask-path-effect33">
      <path
         id="mask-powermask-path-effect33_box"
         style="fill:#ffffff;fill-opacity:1"
         d="M -0.999999,-1 H 76.282908 V 11.09089 H -0.999999 Z" />
      <g
         id="g33"
         style="fill:#000000;fill-opacity:1"
         transform="translate(-71.311841,-126.90023)">
        <path
           id="path1"
           style="fill:#000000;fill-opacity:1;stroke-width:2.10178;stroke-linejoin:round;stroke-miterlimit:3.8;paint-order:stroke fill markers"
           d="m 104.60471,127.61913 c -1.8667,0.19142 -4.37126,0.25171 -5.515604,0.13066 -1.123493,-0.11885 -0.453038,-0.36266 1.421674,-0.54104 1.81416,-0.17262 4.13265,-0.22369 5.24807,-0.1174 1.13489,0.10815 0.65032,0.34274 -1.15414,0.52778 z"
           inkscape:tile-cx="76.291478"
           inkscape:tile-cy="91.508016"
           inkscape:tile-w="5.9780259"
           inkscape:tile-h="5.9780259"
           inkscape:tile-x0="73.302465"
           inkscape:tile-y0="88.519003" />
        <path
           id="path2"
           style="fill:#000000;fill-opacity:1;stroke-width:1.97815;stroke-linejoin:round;stroke-miterlimit:3.8;paint-order:stroke fill markers"
           d="m 104.48047,127.60667 c -1.7554,0.1796 -4.10709,0.23606 -5.183356,0.12258 -1.057836,-0.11154 -0.432187,-0.34073 1.330366,-0.5088 1.70886,-0.16295 3.89575,-0.21124 4.94638,-0.11084 1.06792,0.10206 0.60692,0.3231 -1.09339,0.49706 z"
           inkscape:tile-x0="73.302465"
           inkscape:tile-y0="88.519003" />
        <path
           id="path3"
           style="fill:#000000;fill-opacity:1;stroke-width:1.97815;stroke-linejoin:round;stroke-miterlimit:3.8;paint-order:stroke fill markers"
           d="m 97.399637,128.33112 c -1.994427,0.20405 -4.551491,0.2692 -5.629802,0.14122 -1.058629,-0.12564 -0.236179,-0.38475 1.758424,-0.57494 1.930072,-0.18405 4.293974,-0.2393 5.352078,-0.127 1.076608,0.11426 0.447113,0.36348 -1.4807,0.56072 z"
           inkscape:tile-x0="73.302465"
           inkscape:tile-y0="88.519003" />
        <path
           id="path4"
           style="fill:#000000;fill-opacity:1;stroke-width:1.97815;stroke-linejoin:round;stroke-miterlimit:3.8;paint-order:stroke fill markers"
           d="m 89.328699,129.15686 c -2.285815,0.23386 -5.085053,0.30971 -6.155051,0.16409 -1.049094,-0.14277 0.02075,-0.43816 2.296448,-0.65516 2.197185,-0.20952 4.767359,-0.27322 5.825753,-0.14666 1.078148,0.12893 0.237078,0.41221 -1.96715,0.63773 z"
           inkscape:tile-x0="73.302465"
           inkscape:tile-y0="88.519003" />
        <path
           id="path5"
           style="fill:#000000;fill-opacity:1;stroke-width:1.97815;stroke-linejoin:round;stroke-miterlimit:3.8;paint-order:stroke fill markers"
           d="m 80.044373,130.10674 c -2.646058,0.27072 -5.734582,0.3599 -6.780877,0.19254 -1.024309,-0.16385 0.360435,-0.50389 2.981116,-0.75379 2.523846,-0.24066 5.337085,-0.31474 6.385202,-0.17085 1.069088,0.14677 -0.04079,0.47176 -2.585441,0.7321 z"
           inkscape:tile-x0="73.302465"
           inkscape:tile-y0="88.519003" />
        <path
           id="path6"
           style="fill:#000000;fill-opacity:1;stroke-width:1.73912;stroke-linejoin:round;stroke-miterlimit:3.8;paint-order:stroke fill markers"
           d="m 108.58765,128.01838 c -1.52988,0.16873 -3.63482,0.22208 -4.64584,0.11615 -0.99532,-0.10429 -0.5105,-0.31983 1.02873,-0.47873 1.49652,-0.15449 3.46828,-0.20081 4.4543,-0.10605 1.0008,0.0962 0.64906,0.30471 -0.83719,0.46863 z"
           inkscape:tile-x0="73.302465"
           inkscape:tile-y0="88.519003" />
        <path
           id="path7"
           style="fill:#000000;fill-opacity:1;stroke-width:1.73912;stroke-linejoin:round;stroke-miterlimit:3.8;paint-order:stroke fill markers"
           d="m 101.54312,128.79532 c -1.745342,0.1925 -4.038819,0.2543 -5.056774,0.13434 -1.001071,-0.11796 -0.342691,-0.36265 1.406786,-0.54325 1.697797,-0.17527 3.834408,-0.22851 4.831218,-0.12204 1.0127,0.10817 0.51104,0.34431 -1.18123,0.53095 z"
           inkscape:tile-x0="73.302465"
           inkscape:tile-y0="88.519003" />
        <path
           id="path8"
           style="fill:#000000;fill-opacity:1;stroke-width:1.73912;stroke-linejoin:round;stroke-miterlimit:3.8;paint-order:stroke fill markers"
           d="m 93.477585,129.68488 c -2.009762,0.22165 -4.526581,0.29391 -5.542569,0.1568 -0.997909,-0.13467 -0.119151,-0.41499 1.886784,-0.62206 1.942585,-0.20054 4.27234,-0.26222 5.273606,-0.14161 1.018355,0.12267 0.326466,0.39243 -1.617821,0.60687 z"
           inkscape:tile-x0="73.302465"
           inkscape:tile-y0="88.519003" />
        <path
           id="path9"
           style="fill:#000000;fill-opacity:1;stroke-width:1.73912;stroke-linejoin:round;stroke-miterlimit:3.8;paint-order:stroke fill markers"
           d="m 84.151707,130.71343 c -2.339157,0.25799 -5.124253,0.34338 -6.124686,0.18495 -0.981233,-0.15539 0.181116,-0.47988 2.504333,-0.7197 2.244402,-0.2317 4.803196,-0.30383 5.799354,-0.1659 1.014439,0.14046 0.07811,0.45171 -2.179001,0.70065 z"
           inkscape:tile-x0="73.302465"
           inkscape:tile-y0="88.519003" />
        <path
           id="path10"
           style="fill:#000000;fill-opacity:1;stroke-width:1.50009;stroke-linejoin:round;stroke-miterlimit:3.8;paint-order:stroke fill markers"
           d="m 112.96559,128.45723 c -1.30378,0.15583 -3.15233,0.20536 -4.08578,0.10816 -0.92053,-0.0959 -0.56733,-0.29514 0.74682,-0.44286 1.28153,-0.14406 3.02643,-0.18776 3.93672,-0.0998 0.92246,0.0892 0.67284,0.28262 -0.59776,0.43448 z"
           inkscape:tile-x0="73.302465"
           inkscape:tile-y0="88.519003" />
        <path
           id="path11"
           style="fill:#000000;fill-opacity:1;stroke-width:1.50009;stroke-linejoin:round;stroke-miterlimit:3.8;paint-order:stroke fill markers"
           d="m 105.97888,129.29227 c -1.49394,0.17856 -3.51236,0.23618 -4.45709,0.12564 -0.93075,-0.1089 -0.42839,-0.33616 1.07225,-0.50485 1.46088,-0.16421 3.35661,-0.21468 4.28065,-0.11535 0.93724,0.10075 0.55749,0.32087 -0.89581,0.49456 z"
           inkscape:tile-x0="73.302465"
           inkscape:tile-y0="88.519003" />
        <path
           id="path12"
           style="fill:#000000;fill-opacity:1;stroke-width:1.50009;stroke-linejoin:round;stroke-miterlimit:3.8;paint-order:stroke fill markers"
           d="m 97.94113,130.25294 c -1.728944,0.20664 -3.949584,0.27433 -4.898266,0.14735 -0.933578,-0.12494 -0.239675,-0.38664 1.490161,-0.58109 1.680691,-0.18893 3.754154,-0.24771 4.686618,-0.13456 0.946767,0.11489 0.399924,0.36769 -1.278513,0.5683 z"
           inkscape:tile-x0="73.302465"
           inkscape:tile-y0="88.519003" />
        <path
           id="path13"
           style="fill:#000000;fill-opacity:1;stroke-width:1.50009;stroke-linejoin:round;stroke-miterlimit:3.8;paint-order:stroke fill markers"
           d="m 88.595884,131.36987 c -2.024104,0.24192 -4.489063,0.32236 -5.430101,0.1748 -0.924831,-0.14501 0.01856,-0.44977 2.034405,-0.67637 1.95413,-0.21966 4.239764,-0.28883 5.172258,-0.15861 0.94792,0.13239 0.183679,0.42589 -1.776562,0.66018 z"
           inkscape:tile-x0="73.302465"
           inkscape:tile-y0="88.519003" />
        <path
           id="path14"
           style="fill:#000000;fill-opacity:1;stroke-width:1.25283;stroke-linejoin:round;stroke-miterlimit:3.8;paint-order:stroke fill markers"
           d="m 117.63192,128.92499 c -1.07139,0.13959 -2.64292,0.18419 -3.4789,0.0977 -0.82599,-0.0855 -0.59402,-0.26424 0.48748,-0.39756 1.05819,-0.13044 2.5541,-0.17048 3.37012,-0.0911 0.8255,0.0802 0.66911,0.25449 -0.3787,0.39101 z"
           inkscape:tile-x0="73.302465"
           inkscape:tile-y0="88.519003" />
        <path
           id="path15"
           style="fill:#000000;fill-opacity:1;stroke-width:1.25283;stroke-linejoin:round;stroke-miterlimit:3.8;paint-order:stroke fill markers"
           d="m 110.72869,129.82441 c -1.2334,0.1607 -2.95313,0.2128 -3.80385,0.11399 -0.83982,-0.0976 -0.48488,-0.30242 0.75631,-0.45542 1.21256,-0.14947 2.84229,-0.19594 3.67439,-0.10589 0.84244,0.0912 0.57746,0.29041 -0.62685,0.44732 z"
           inkscape:tile-x0="73.302465"
           inkscape:tile-y0="88.519003" />
        <path
           id="path16"
           style="fill:#000000;fill-opacity:1;stroke-width:1.25283;stroke-linejoin:round;stroke-miterlimit:3.8;paint-order:stroke fill markers"
           d="m 102.74613,130.86445 c -1.43513,0.18699 -3.33219,0.24851 -4.191995,0.1344 -0.847928,-0.11252 -0.333043,-0.34975 1.10601,-0.52714 1.403365,-0.17299 3.191755,-0.22744 4.035715,-0.12424 0.85523,0.10458 0.44895,0.33475 -0.94973,0.51698 z"
           inkscape:tile-x0="73.302465"
           inkscape:tile-y0="88.519003" />
        <path
           id="path17"
           style="fill:#000000;fill-opacity:1;stroke-width:1.25283;stroke-linejoin:round;stroke-miterlimit:3.8;paint-order:stroke fill markers"
           d="m 93.409671,132.0809 c -1.690737,0.22028 -3.803342,0.29384 -4.662876,0.16041 -0.846651,-0.13142 -0.120577,-0.40948 1.567715,-0.61759 1.643008,-0.20253 3.622194,-0.26704 4.471004,-0.14743 0.861091,0.12134 0.268333,0.39039 -1.375843,0.60461 z"
           inkscape:tile-x0="73.302465"
           inkscape:tile-y0="88.519003" />
        <path
           id="path18"
           style="fill:#000000;fill-opacity:1;stroke-width:1.0138;stroke-linejoin:round;stroke-miterlimit:3.8;paint-order:stroke fill markers"
           d="m 122.63764,129.42676 c -0.84884,0.12146 -2.14347,0.16045 -2.87039,0.0857 -0.71966,-0.074 -0.59077,-0.2298 0.26694,-0.34667 0.84214,-0.11475 2.08497,-0.15039 2.79587,-0.0809 0.71784,0.0702 0.64073,0.22263 -0.19242,0.34184 z"
           inkscape:tile-x0="73.302465"
           inkscape:tile-y0="88.519003" />
        <path
           id="path19"
           style="fill:#000000;fill-opacity:1;stroke-width:1.0138;stroke-linejoin:round;stroke-miterlimit:3.8;paint-order:stroke fill markers"
           d="m 115.8492,130.39807 c -0.9821,0.14052 -2.40207,0.18629 -3.14608,0.10048 -0.73602,-0.0849 -0.51004,-0.26435 0.47966,-0.3992 0.97042,-0.13223 2.32839,-0.17382 3.05689,-0.0945 0.73613,0.0802 0.57214,0.25546 -0.39047,0.39319 z"
           inkscape:tile-x0="73.302465"
           inkscape:tile-y0="88.519003" />
        <path
           id="path20"
           style="fill:#000000;fill-opacity:1;stroke-width:1.0138;stroke-linejoin:round;stroke-miterlimit:3.8;paint-order:stroke fill markers"
           d="m 107.95585,131.52748 c -1.14941,0.16446 -2.72016,0.21879 -3.47726,0.11914 -0.7483,-0.0985 -0.39416,-0.30756 0.76052,-0.46489 1.13042,-0.15403 2.6258,-0.20308 3.36884,-0.11154 0.75145,0.0926 0.47265,0.29635 -0.6521,0.45729 z"
           inkscape:tile-x0="73.302465"
           inkscape:tile-y0="88.519003" />
        <path
           id="path21"
           style="fill:#000000;fill-opacity:1;stroke-width:1.0138;stroke-linejoin:round;stroke-miterlimit:3.8;paint-order:stroke fill markers"
           d="m 98.663922,132.85699 c -1.363406,0.19508 -3.11864,0.26047 -3.881752,0.14316 -0.753447,-0.11583 -0.227415,-0.36261 1.137218,-0.54855 1.333503,-0.18169 2.995433,-0.24025 3.747548,-0.13332 0.761354,0.10824 0.328578,0.34818 -1.003014,0.53871 z"
           inkscape:tile-x0="73.302465"
           inkscape:tile-y0="88.519003" />
        <path
           id="path22"
           style="fill:#000000;fill-opacity:1;stroke-width:0.766531;stroke-linejoin:round;stroke-miterlimit:3.8;paint-order:stroke fill markers"
           d="m 127.99796,129.96409 c -0.62442,0.0989 -1.62061,0.13085 -2.21245,0.0704 -0.58719,-0.06 -0.54151,-0.18717 0.0895,-0.28318 0.62203,-0.0946 1.58725,-0.12438 2.16789,-0.0673 0.5851,0.0576 0.57039,0.18256 -0.045,0.28007 z"
           inkscape:tile-x0="73.302465"
           inkscape:tile-y0="88.519003" />
        <path
           id="path23"
           style="fill:#000000;fill-opacity:1;stroke-width:0.766531;stroke-linejoin:round;stroke-miterlimit:3.8;paint-order:stroke fill markers"
           d="m 121.36167,131.01565 c -0.72635,0.11509 -1.82156,0.15273 -2.43102,0.0829 -0.6043,-0.0692 -0.48822,-0.2165 0.24423,-0.32793 0.72117,-0.10972 1.77909,-0.14464 2.37735,-0.079 0.60322,0.0661 0.52443,0.21073 -0.19056,0.32403 z"
           inkscape:tile-x0="73.302465"
           inkscape:tile-y0="88.519003" />
        <path
           id="path24"
           style="fill:#000000;fill-opacity:1;stroke-width:0.766531;stroke-linejoin:round;stroke-miterlimit:3.8;paint-order:stroke fill markers"
           d="m 113.5991,132.24567 c -0.85542,0.13555 -2.07043,0.1805 -2.69511,0.099 -0.61896,-0.0808 -0.4083,-0.25351 0.4521,-0.38442 0.84606,-0.12871 2.0154,-0.17019 2.62942,-0.0939 0.61952,0.0769 0.45452,0.24617 -0.38641,0.37941 z"
           inkscape:tile-x0="73.302465"
           inkscape:tile-y0="88.519003" />
        <path
           id="path25"
           style="fill:#000000;fill-opacity:1;stroke-width:0.766531;stroke-linejoin:round;stroke-miterlimit:3.8;paint-order:stroke fill markers"
           d="m 104.39697,133.70381 c -1.02223,0.16198 -2.38482,0.21645 -3.01999,0.11977 -0.62882,-0.0957 -0.28897,-0.30117 0.73609,-0.45712 1.00642,-0.15312 2.31199,-0.20305 2.93797,-0.11323 0.6321,0.0907 0.34925,0.2916 -0.65407,0.45058 z"
           inkscape:tile-x0="73.302465"
           inkscape:tile-y0="88.519003" />
        <path
           id="path26"
           style="fill:#000000;fill-opacity:1;stroke-width:0.535748;stroke-linejoin:round;stroke-miterlimit:3.8;paint-order:stroke fill markers"
           d="m 133.78933,130.54462 c -0.42126,0.0747 -1.12993,0.0989 -1.57646,0.0536 -0.44399,-0.0451 -0.4539,-0.14133 -0.0285,-0.21445 0.42098,-0.0724 1.11382,-0.0954 1.55369,-0.0519 0.44234,0.0438 0.46807,0.13879 0.0513,0.21274 z"
           inkscape:tile-x0="73.302465"
           inkscape:tile-y0="88.519003" />
        <path
           id="path27"
           style="fill:#000000;fill-opacity:1;stroke-width:0.535748;stroke-linejoin:round;stroke-miterlimit:3.8;paint-order:stroke fill markers"
           d="m 127.35163,131.68672 c -0.49287,0.0874 -1.2739,0.11615 -1.73671,0.0635 -0.45996,-0.0523 -0.42376,-0.16446 0.0732,-0.24987 0.49131,-0.0845 1.25316,-0.11164 1.70912,-0.0613 0.45872,0.0506 0.44169,0.16125 -0.0456,0.24769 z"
           inkscape:tile-x0="73.302465"
           inkscape:tile-y0="88.519003" />
        <path
           id="path28"
           style="fill:#000000;fill-opacity:1;stroke-width:0.535748;stroke-linejoin:round;stroke-miterlimit:3.8;paint-order:stroke fill markers"
           d="m 119.77244,133.03134 c -0.58444,0.10368 -1.45353,0.13819 -1.93157,0.0763 -0.47483,-0.0615 -0.37533,-0.19393 0.21275,-0.29501 0.58087,-0.0999 1.42631,-0.13239 1.89754,-0.0735 0.47434,0.0593 0.39848,0.1898 -0.17872,0.2922 z"
           inkscape:tile-x0="73.302465"
           inkscape:tile-y0="88.519003" />
        <path
           id="path29"
           style="fill:#000000;fill-opacity:1;stroke-width:0.535748;stroke-linejoin:round;stroke-miterlimit:3.8;paint-order:stroke fill markers"
           d="m 110.71861,134.63756 c -0.70412,0.12492 -1.6825,0.16706 -2.17314,0.0931 -0.48703,-0.0735 -0.29912,-0.23232 0.40774,-0.35382 0.69735,-0.11986 1.64591,-0.15941 2.13022,-0.0893 0.48781,0.0706 0.32971,0.22687 -0.36482,0.35008 z"
           inkscape:tile-x0="73.302465"
           inkscape:tile-y0="88.519003" />
        <path
           id="path30"
           style="fill:#000000;fill-opacity:1;stroke-width:0.354418;stroke-linejoin:round;stroke-miterlimit:3.8;paint-order:stroke fill markers"
           d="m 140.11968,131.17918 c -0.26618,0.0537 -0.74369,0.0711 -1.06362,0.0388 -0.31869,-0.0322 -0.35703,-0.10139 -0.0885,-0.15425 0.26656,-0.0525 0.73684,-0.0694 1.05323,-0.0379 0.31761,0.0316 0.36318,0.10013 0.0989,0.1534 z"
           inkscape:tile-x0="73.302465"
           inkscape:tile-y0="88.519003" />
        <path
           id="path31"
           style="fill:#000000;fill-opacity:1;stroke-width:0.346175;stroke-linejoin:round;stroke-miterlimit:3.8;paint-order:stroke fill markers"
           d="m 133.92602,132.42327 c -0.30616,0.0617 -0.82144,0.082 -1.14753,0.0452 -0.32473,-0.0367 -0.33524,-0.11599 -0.0268,-0.17672 0.30604,-0.0603 0.8129,-0.0799 1.13541,-0.0441 0.32384,0.0359 0.34277,0.11445 0.039,0.17568 z"
           inkscape:tile-x0="73.302465"
           inkscape:tile-y0="88.519003" />
        <path
           id="path32"
           style="fill:#000000;fill-opacity:1;stroke-width:0.346175;stroke-linejoin:round;stroke-miterlimit:3.8;paint-order:stroke fill markers"
           d="m 126.59807,133.90001 c -0.36579,0.0737 -0.94104,0.0983 -1.28064,0.0546 -0.33806,-0.0435 -0.31043,-0.13784 0.0575,-0.2103 0.36488,-0.0718 0.92966,-0.0955 1.26558,-0.0533 0.33741,0.0425 0.32025,0.13583 -0.0425,0.20892 z"
           inkscape:tile-x0="73.302465"
           inkscape:tile-y0="88.519003" />
        <path
           id="path33"
           style="fill:#000000;fill-opacity:1;stroke-width:0.346175;stroke-linejoin:round;stroke-miterlimit:3.8;paint-order:stroke fill markers"
           d="m 117.76987,135.67909 c -0.4447,0.0896 -1.09497,0.11996 -1.44703,0.0673 -0.35029,-0.0524 -0.26791,-0.16666 0.17868,-0.25461 0.44248,-0.0871 1.0794,-0.11619 1.42783,-0.0654 0.35014,0.051 0.28109,0.16397 -0.15948,0.25276 z"
           inkscape:tile-x0="73.302465"
           inkscape:tile-y0="88.519003" />
      </g>
    </mask>
    <mask
       maskUnits="userSpaceOnUse"
       id="mask-powermask-path-effect182">
      <path
         id="mask-powermask-path-effect182_box"
         style="fill:#ffffff;fill-opacity:1"
         d="m 42.787188,3.0824 h 33.49572 v 37.26558 h -33.49572 z" />
    </mask>
    <filter
       id="mask-powermask-path-effect182_inverse"
       inkscape:label="filtermask-powermask-path-effect182"
       style="color-interpolation-filters:sRGB"
       height="100"
       width="100"
       x="-50"
       y="-50">
      <feColorMatrix
         id="mask-powermask-path-effect182_primitive1"
         values="1"
         type="saturate"
         result="fbSourceGraphic" />
      <feColorMatrix
         id="mask-powermask-path-effect182_primitive2"
         values="-1 0 0 0 1 0 -1 0 0 1 0 0 -1 0 1 0 0 0 1 0 "
         in="fbSourceGraphic" />
    </filter>
  </defs>
  <g
     inkscape:groupmode="layer"
     id="layer1"
     inkscape:label="bg"
     style="fill:#ffffff;fill-opacity:1"
     transform="translate(0.0037938)">
    <path
       style="display:none;fill:#ffffff;fill-opacity:1;stroke:none;stroke-width:0.265;stroke-linejoin:round;stroke-miterlimit:3.8;stroke-dasharray:none;paint-order:stroke fill markers"
       id="rect1"
       width="43.787186"
       height="36.261108"
       x="9.9999988e-07"
       y="3.08687"
       inkscape:path-effect="#path-effect2"
       sodipodi:type="rect"
       d="M 9.9999988e-7,3.08687 43.787188,10.09089 l 0,29.25709 L 0,23.048004 Z" />
    <path
       style="fill:#ffffff;fill-opacity:1;stroke:none;stroke-width:0.264999;stroke-linejoin:round;stroke-miterlimit:3.8;stroke-dasharray:none;stroke-opacity:1;paint-order:stroke fill markers"
       id="rect3"
       width="35.378323"
       height="9.635067"
       x="32.441315"
       y="0"
       sodipodi:type="rect"
       d="M 32.441315,0 75.213782,4.0996714 43.787188,10.09089 9.9999988e-7,3.08687 Z"
       inkscape:path-effect="#path-effect4" />
  </g>
  <path
     id="rect675"
     mask="url(#mask-powermask-path-effect33)"
     d="M 43.787188,10.09089 9.9999997e-7,3.08687 32.441318,0 l 42.84159,4.08239 -31.49572,6.0085"
     style="display:inline;fill:#000000;fill-opacity:1;stroke-width:1.14156;stroke-linejoin:round;stroke-miterlimit:3.8;paint-order:stroke fill markers"
     sodipodi:nodetypes="ccccc"
     transform="translate(0.0037938)" />
  <path
     d="M 43.787188,9.3765422 V 39.34798 L 75.282908,25.45169 V 4.0824 Z"
     style="fill:#000000;fill-opacity:1;fill-rule:evenodd;stroke:none;stroke-width:4.61015;stroke-linejoin:round;stroke-miterlimit:3.8;paint-order:stroke fill markers"
     id="path261"
     mask="url(#mask-powermask-path-effect182)"
     sodipodi:nodetypes="ccccc"
     inkscape:path-effect="#path-effect182"
     inkscape:original-d="M 43.787188,9.3765422 V 39.34798 L 75.282908,25.45169 V 4.0824 Z"
     transform="translate(0.0037938)" />
  <g
     id="g1"
     inkscape:path-effect="#path-effect1">
    <path
       id="rect91"
       style="fill:#ffffff;fill-opacity:1;stroke-width:3.52504;stroke-linecap:round;paint-order:stroke fill markers"
       d="m 0.00379481,3.08687 43.78718719,7.00402 -7e-6,29.228626 L 0.00379481,23.44486 Z"
       inkscape:original-d="M -1.4591581,16.770742 H 45.319147 V 29.460043 H -1.4591581 Z" />
    <g
       id="g78"
       transform="translate(1.289791,-22.870183)">
      <path
         style="font-size:32px;line-height:1.25;font-family:'Black Ops One';-inkscape-font-specification:'Black Ops One';letter-spacing:0px;white-space:pre"
         d="m 116.45749,186.02566 -3.17238,-6.91464 0,-8.7617 3.17239,-4.95052 8.79686,2.43919 0,6.36485 -4.346,-1.31548 0,6.3224 4.346,1.42712 0,4.04723 -2.53462,3.61238 z"
         transform="matrix(0.5535894,0,0,0.5535894,-32.447074,-44.580199)"
         id="path91"
         inkscape:original-d="m 122.95898,175.0675 -2.78125,-2.73437 v -4.15625 l 2.78125,-2.76563 h 7.34375 v 2.875 h -3.5625 v 2.90625 h 3.5625 v 1.82813 l -2.0625,2.04687 z" />
      <path
         style="font-size:32px;line-height:1.25;font-family:'Black Ops One';-inkscape-font-specification:'Black Ops One';letter-spacing:0px;white-space:pre"
         d="m 126.61962,189.71067 0,-27.71976 -11.75879,-2.96981 0,-4.37663 2.39391,-3.8928 12.6829,2.73907 5.44837,10.71422 -1e-5,28.6846 z"
         transform="matrix(0.5535894,0,0,0.5535894,-32.447074,-44.580199)"
         id="path90"
         inkscape:original-d="m 131.39648,175.0675 v -12.45312 h -9.82812 v -2.0625 l 2.07812,-2.07813 h 10.35938 l 4.14062,4.14063 v 12.45312 z" />
      <path
         style="font-size:32px;line-height:1.25;font-family:'Black Ops One';-inkscape-font-specification:'Black Ops One';letter-spacing:0px;white-space:pre"
         d="m 107.11701,157.06532 0,-8.50305 4.04144,0.87281 0,8.65095 z"
         transform="matrix(0.5535894,0,0,0.5535894,-32.447074,-44.580199)"
         id="path89"
         inkscape:original-d="m 114.55273,162.61438 v -4.14063 h 3.71875 v 4.14063 z" />
      <path
         style="font-size:32px;line-height:1.25;font-family:'Black Ops One';-inkscape-font-specification:'Black Ops One';letter-spacing:0px;white-space:pre"
         d="m 103.08242,181.17556 -4.207841,-9.72725 2e-6,-16.46471 -1.358132,-0.34301 1e-6,-8.15171 1.358133,0.29331 0,-3.55909 7.079937,-3.37237 -1e-5,33.90583 4.92784,1.60661 0,8.64082 z"
         transform="matrix(0.5535894,0,0,0.5535894,-32.447074,-44.580199)"
         id="path88"
         inkscape:original-d="m 110.70898,175.0675 -4.15625,-4.14062 v -8.3125 h -1.375 v -4.14063 h 1.375 v -1.79687 l 6.90625,-2.34375 v 16.59375 h 4.5625 v 4.14062 z" />
      <path
         style="font-size:32px;line-height:1.25;font-family:'Black Ops One';-inkscape-font-specification:'Black Ops One';letter-spacing:0px;white-space:pre"
         d="m 86.41032,175.12988 10e-7,-7.2484 8.558515,2.8104 0,3.49708 -1.961178,3.33326 z"
         transform="matrix(0.5535894,0,0,0.5535894,-32.447074,-44.580199)"
         id="path87"
         inkscape:original-d="m 93.271484,175.0675 v -3.875 h 9.281246 v 1.79688 l -2.0625,2.07812 z" />
      <path
         style="font-size:32px;line-height:1.25;font-family:'Black Ops One';-inkscape-font-specification:'Black Ops One';letter-spacing:0px;white-space:pre"
         d="m 86.410321,162.67899 10e-7,-5.40707 3.276605,0.91171 0,-5.52047 -3.276605,-0.82754 1e-6,-7.74528 5.323735,1.14974 3.926529,8.93179 -2e-6,11.3173 z"
         transform="matrix(0.5535894,0,0,0.5535894,-32.447074,-44.580199)"
         id="path86"
         inkscape:original-d="m 93.271484,168.41125 v -2.89062 h 3.640625 v -2.90625 h -3.640625 v -4.14063 h 5.859375 l 4.140621,4.14063 v 5.79687 z" />
      <path
         style="font-size:32px;line-height:1.25;font-family:'Black Ops One';-inkscape-font-specification:'Black Ops One';letter-spacing:0px;white-space:pre"
         d="m 83.044194,173.90925 -3.494366,-8.76134 10e-7,-15.04498 3.494368,-6.73956 2.401165,0.51857 -2e-6,30.89802 z"
         transform="matrix(0.5535894,0,0,0.5535894,-32.447074,-44.580199)"
         id="path85"
         inkscape:original-d="m 89.412109,175.0675 -4.140625,-4.14062 v -8.3125 l 4.140625,-4.14063 h 2.765625 v 16.59375 z" />
      <path
         style="font-size:32px;line-height:1.25;font-family:'Black Ops One';-inkscape-font-specification:'Black Ops One';letter-spacing:0px;white-space:pre"
         d="m 71.599255,169.75906 10e-7,-21.66413 -2.132663,-0.53863 10e-7,-3.30718 1.607042,-3.47098 3.270374,0.70629 2.695813,6.67169 -2e-6,23.57581 z"
         transform="matrix(0.5535894,0,0,0.5535894,-32.447074,-44.580199)"
         id="path84"
         inkscape:original-d="m 75.302734,175.0675 v -12.45312 h -2.8125 v -1.92188 l 2.125,-2.21875 h 4.21875 l 3.375,3.40625 v 13.1875 z" />
      <path
         style="font-size:32px;line-height:1.25;font-family:'Black Ops One';-inkscape-font-specification:'Black Ops One';letter-spacing:0px;white-space:pre"
         d="m 56.289152,164.20727 v -26.62206 l 4.627923,0.99947 -10e-7,27.30078 z"
         transform="matrix(0.5535894,0,0,0.5535894,-32.447074,-44.580199)"
         id="path83"
         inkscape:original-d="m 53.646484,175.0675 v -16.59375 h 6.921875 v 16.59375 z" />
      <path
         style="font-size:32px;line-height:1.25;font-family:'Black Ops One';-inkscape-font-specification:'Black Ops One';letter-spacing:0px;white-space:pre"
         d="m 63.634449,166.87084 0,-20.78751 -1.964423,-0.49614 0,-3.22637 1.513348,-3.2867 3.829938,0.82713 1.636341,4.15542 -10e-7,24.63279 z"
         transform="matrix(0.5535894,0,0,0.5535894,-32.447074,-44.580199)"
         id="path82"
         inkscape:original-d="m 64.474609,175.0675 v -12.45312 h -2.8125 v -1.95313 l 2.171875,-2.1875 h 5.34375 l 2.21875,2.21875 v 14.375 z" />
    </g>
  </g>
  <path
     style="font-size:13.3333px;line-height:1.25;font-family:'Black Ops One';-inkscape-font-specification:'Black Ops One';letter-spacing:0px;white-space:pre;fill:#ffffff"
     d="m 86.729811,180.26871 0.0051,-23.58867 3.862539,-0.73686 -0.0041,22.62089 z m 4.446477,-1.96186 6.71e-4,-3.80004 1.608916,-0.64176 0.0013,-8.26046 -1.608774,0.49091 3.63e-4,-2.05286 1.063119,-2.28303 1.912774,-0.49714 2.00896,3.31182 -0.001,7.69787 -2.010306,4.72161 z m 8.216004,-3.62505 -1.850228,-2.95586 9.23e-4,-7.57254 1.850872,-4.25262 1.978611,-0.51425 -3.2e-4,3.59842 -0.75465,0.23028 -7.2e-4,7.52628 0.75471,-0.30103 -3e-4,3.3682 z m 2.431388,-1.07277 2.9e-4,-3.34904 0.70073,-0.2795 5.8e-4,-7.34741 -0.70068,0.2138 3e-4,-3.57794 1.85757,-0.4828 1.59035,3.00854 -3.8e-4,6.87026 -1.59093,4.12439 z m 7.56252,-3.33671 -3.92555,-11.94833 2.59802,-0.67524 3.66175,11.59367 z m 0.79547,-7.25861 -1.19167,-3.80216 0.39646,-1.9079 2.33396,-0.60661 z m -4.72176,8.99096 1.68742,-7.11732 1.30156,3.955 -0.39064,2.01588 z"
     id="text5"
     transform="matrix(1.2336214,0,0,1.2336214,-62.533996,-183.32135)"
     aria-label="box"
     inkscape:path-effect="#path-effect6"
     inkscape:original-d="m 88.067707,171.0107 v -9.55076 h 2.877597 v 9.55076 z m 3.333325,0 v -1.61458 h 1.289059 v -3.57421 h -1.289059 v -0.8724 l 0.846352,-0.85286 H 93.8229 l 1.731767,1.72526 v 3.46353 L 93.8229,171.0107 Z m 7.115867,0 -1.725256,-1.72526 v -3.46353 l 1.725256,-1.72526 h 1.933591 v 1.72526 h -0.748698 v 3.57421 h 0.748698 v 1.61458 z m 2.389321,0 v -1.61458 h 0.71614 v -3.57421 h -0.71614 v -1.72526 h 1.92707 l 1.72526,1.72526 v 3.46353 l -1.72526,1.72526 z m 8.47003,0 -4.60937,-6.91405 h 2.99479 l 4.60285,6.91405 z m 0.99609,-3.72395 -1.48437,-2.23307 0.48828,-0.95703 h 2.98827 z m -5.60546,3.72395 1.92057,-3.29427 1.54297,2.32422 -0.46875,0.97005 z" />
  <path
     style="fill:none;stroke:#000000;stroke-width:0.0641379;stroke-linecap:butt;stroke-linejoin:miter;stroke-dasharray:none;stroke-opacity:1"
     d="m 43.790975,23.453022 c 0,15.878212 0,15.878212 0,15.878212"
     id="path34" />
</svg>
